<?xml version="1.0" encoding="utf-8"?>
<!-- Generator: Adobe Illustrator 26.0.1, SVG Export Plug-In . SVG Version: 6.00 Build 0)  -->
<svg version="1.1" id="Calque_1" xmlns="http://www.w3.org/2000/svg" xmlns:xlink="http://www.w3.org/1999/xlink" x="0px" y="0px"
	 viewBox="0 0 1200 544.34" style="enable-background:new 0 0 1200 544.34;" xml:space="preserve">
<style type="text/css">
	.st0{fill:#2A2A72;}
	.st1{fill:#4D4DC4;}
	.st2{fill:#FFFFFF;}
</style>
<rect x="-1.89" y="-4.96" class="st0" width="1214.81" height="557.62"/>
<g>
	<path class="st0" d="M1755.71,2.18v-315.89h76.72V2.18H1755.71z"/>
	<path class="st0" d="M2022.01-83.11v29.78c0,23.77,3,42.27,9.03,55.51h-78.97c-4.51-8.12-6.77-24.52-6.77-49.19v-52.35
		c0-12.64-4.22-18.95-12.64-18.95h-3.61V2.18h-76.72v-315.89h101.54c26.77,0,44.82,5.27,54.15,15.79
		c9.32,10.53,13.99,30.84,13.99,60.92v12.64c0,21.66-2.19,37.76-6.54,48.29c-4.36,10.53-12.11,17.75-23.24,21.66
		c11.13,4.51,18.88,12.18,23.24,23.01C2019.82-120.56,2022.01-104.47,2022.01-83.11z M1945.29-203.15v-25.72
		c0-4.51-0.45-7.67-1.35-9.48s-2.86-2.71-5.87-2.71h-9.03v50.09h9.03c3,0,4.96-0.9,5.87-2.71S1945.29-198.63,1945.29-203.15z"/>
	<path class="st0" d="M2045.79,2.18v-315.89h76.72V2.18H2045.79z"/>
	<path class="st0" d="M2228.91-80.4v-5.42c0-10.53-2.56-18.88-7.67-25.05c-5.12-6.16-15.79-15.57-32.04-28.2
		c-11.44-9.03-20.24-16.99-26.4-23.92c-6.17-6.92-11.36-16.17-15.57-27.75c-4.22-11.58-6.32-25.19-6.32-40.84v-7.67
		c0-30.08,4.66-50.39,13.99-60.92c9.32-10.53,27.37-15.79,54.15-15.79h28.43c26.77,0,44.82,5.27,54.15,15.79
		c9.32,10.53,13.99,30.84,13.99,60.92v32.04h-72.2v-23.92c0-4.51-0.45-7.67-1.35-9.48c-0.9-1.81-2.86-2.71-5.87-2.71h-1.8
		c-4.82,0-7.22,3.46-7.22,10.38v0.9c0,7.52,1.73,14.21,5.19,20.08c3.46,5.87,7.07,10.53,10.83,13.99
		c3.76,3.46,11.66,9.86,23.69,19.18c17.15,13.54,29.56,26.7,37.23,39.49c7.67,12.79,11.51,30.46,11.51,53.02v13.99
		c0,30.09-4.67,50.39-13.99,60.92c-9.33,10.53-27.38,15.79-54.15,15.79h-28.43c-26.78,0-44.83-5.26-54.15-15.79
		c-9.33-10.53-13.99-30.83-13.99-60.92v-41.07h71.75v32.94c0,4.51,0.45,7.67,1.35,9.48c0.9,1.8,2.86,2.71,5.87,2.71h2.26
		C2226.66-68.22,2228.91-72.28,2228.91-80.4z"/>
</g>
<path class="st0" d="M1553.41-127.81c0-6.08,3.3-11.02,7.36-11.02c4.05,0,7.35,4.94,7.35,11.02c0,6.08-3.3,11.02-7.35,11.02
	C1556.71-116.79,1553.41-121.73,1553.41-127.81z"/>
<path class="st0" d="M1495.81-122.65c6.02-2.49,12.16-4.62,18.4-6.52c2.26,16.05,15.3,28.35,31.04,28.35
	c17.33,0,31.37-14.93,31.37-33.33c0-3.93-0.62-7.68-1.79-11.16c6.58-2.33,12.95-5.13,18.99-8.71c2.07,5.58,3.21,11.63,3.21,17.95
	c0,28.43-23.04,51.49-51.5,51.49C1521.74-84.58,1501.7-100.74,1495.81-122.65z"/>
<path class="st0" d="M1695.73-259.63v196.02c0,42.73-34.68,77.37-77.41,77.37h-196.03c-37.98,0-69.58-27.38-76.11-63.5l81.78-52.11
	c-0.77,11.99,0.6,23.8,6.3,34.47c6.49-11,12.36-21.38,21.72-30.38c8.42-8.09,18.19-14.6,28.61-19.82c0.28-0.13,0.56-0.29,0.84-0.41
	c6.32,28.37,31.63,49.53,61.9,49.53c35.05,0,63.49-28.41,63.49-63.49c0-10.44-2.53-20.3-7.01-28.98
	c11.99-9.6,21.57-22.09,27.52-36.28c5.19-12.39,7.36-25.54,6.84-38.59l56.61-36.07C1695.39-267.88,1695.73-263.81,1695.73-259.63z"
	/>
<path class="st1" d="M1694.78-271.87l-56.61,36.07c-0.67-16.95-5.9-33.73-14.97-48.44c-19.85,93.78-109.25,67.89-153.95,121.46
	c1.92-14.69,25.91-37.86,38.01-39.68c-34.62-2.52-62.41-21.68-93.91-21.2c2.78,0,8.72,6.15,10.77,7.94
	c2.97,2.61,5.74,5.48,8.11,8.65c4.12,5.46,6.99,11.71,8.37,18.4c2.78,13.53-0.24,27.51-3.43,40.67c-3.48,14.32-8.19,30.4-9.21,46.15
	l-81.78,52.11c-0.84-4.49-1.26-9.12-1.26-13.87v-196.02c0-42.74,34.64-77.38,77.37-77.38h196.03
	C1656.87-337.01,1688.89-308.78,1694.78-271.87z"/>
<g>
	<rect x="519.46" y="129.01" class="st2" width="76.72" height="315.89"/>
	<path class="st2" d="M785.75,359.61c0-21.36-2.19-37.46-6.54-48.29c-4.36-10.83-12.11-18.5-23.24-23.01
		c11.13-3.91,18.88-11.13,23.24-21.66c4.36-10.53,6.54-26.62,6.54-48.29v-12.63c0-30.08-4.67-50.39-13.99-60.92
		c-9.33-10.53-27.38-15.79-54.15-15.79H616.07V444.9h76.72V324.42h3.61c8.42,0,12.64,6.32,12.64,18.95v52.35
		c0,24.67,2.26,41.07,6.77,49.19h78.97c-6.02-13.24-9.03-31.74-9.03-55.51V359.61z M709.03,239.58c0,4.51-0.45,7.67-1.35,9.48
		c-0.9,1.81-2.86,2.71-5.87,2.71h-9.03v-50.09h9.03c3,0,4.96,0.9,5.87,2.71c0.9,1.81,1.35,4.96,1.35,9.48V239.58z"/>
	<rect x="809.53" y="129.01" class="st2" width="76.72" height="315.89"/>
	<path class="st2" d="M1069.37,235.51v-32.04c0-30.08-4.67-50.39-13.99-60.92c-9.33-10.53-27.38-15.79-54.15-15.79H972.8
		c-26.78,0-44.83,5.27-54.15,15.79c-9.33,10.54-13.99,30.84-13.99,60.92v7.67c0,15.65,2.1,29.26,6.32,40.84
		c4.21,11.58,9.4,20.84,15.57,27.75c6.16,6.92,14.96,14.89,26.4,23.92c16.25,12.63,26.92,22.04,32.04,28.2
		c5.11,6.17,7.67,14.52,7.67,25.04v5.42c0,8.12-2.26,12.18-6.77,12.18h-2.26c-3.01,0-4.96-0.9-5.87-2.71
		c-0.9-1.81-1.35-4.96-1.35-9.48v-32.94h-71.75v41.07c0,30.09,4.66,50.39,13.99,60.92c9.32,10.53,27.37,15.79,54.15,15.79h28.43
		c26.77,0,44.82-5.26,54.15-15.79c9.32-10.53,13.99-30.83,13.99-60.92v-13.99c0-22.56-3.84-40.23-11.51-53.02
		c-7.67-12.78-20.08-25.95-37.23-39.49c-12.04-9.32-19.93-15.72-23.69-19.18c-3.77-3.46-7.38-8.12-10.83-13.99
		c-3.46-5.87-5.19-12.56-5.19-20.08v-0.9c0-6.92,2.4-10.38,7.22-10.38h1.8c3,0,4.96,0.9,5.87,2.71c0.9,1.8,1.35,4.96,1.35,9.48
		v23.92H1069.37z"/>
	<path class="st2" d="M324.52,325.93c4.05,0,7.35-4.94,7.35-11.02c0-6.08-3.3-11.02-7.35-11.02c-4.06,0-7.36,4.94-7.36,11.02
		C317.16,320.99,320.46,325.93,324.52,325.93z"/>
	<path class="st2" d="M338.58,297.41c1.17,3.48,1.79,7.23,1.79,11.16c0,18.4-14.04,33.33-31.37,33.33
		c-15.74,0-28.78-12.3-31.04-28.35c-6.24,1.9-12.38,4.03-18.4,6.52c5.89,21.91,25.93,38.07,49.72,38.07
		c28.46,0,51.5-23.06,51.5-51.49c0-6.32-1.14-12.37-3.21-17.95C351.53,292.28,345.16,295.08,338.58,297.41z"/>
	<path class="st2" d="M382.07,105.71H186.04c-42.73,0-77.37,34.64-77.37,77.38v196.02c0,4.75,0.42,9.38,1.26,13.87
		c6.53,36.12,38.13,63.5,76.11,63.5h196.03c42.73,0,77.41-34.64,77.41-77.37V183.09c0-4.18-0.34-8.25-0.95-12.24
		C452.64,133.94,420.62,105.71,382.07,105.71z M395.08,245.51c-5.95,14.19-15.53,26.68-27.52,36.28c4.48,8.68,7.01,18.54,7.01,28.98
		c0,35.08-28.44,63.49-63.49,63.49c-30.27,0-55.58-21.16-61.9-49.53c-0.28,0.12-0.56,0.28-0.84,0.41
		c-10.42,5.22-20.19,11.73-28.61,19.82c-9.36,9-15.23,19.38-21.72,30.38c-5.7-10.67-7.07-22.48-6.3-34.47
		c1.02-15.75,5.73-31.83,9.21-46.15c3.19-13.16,6.21-27.14,3.43-40.67c-1.38-6.69-4.25-12.94-8.37-18.4
		c-2.37-3.17-5.14-6.04-8.11-8.65c-2.05-1.79-7.99-7.94-10.77-7.94c31.5-0.48,59.29,18.68,93.91,21.2
		c-12.1,1.82-36.09,24.99-38.01,39.68c44.7-53.57,134.1-27.68,153.95-121.46c9.07,14.71,14.3,31.49,14.97,48.44
		C402.44,219.97,400.27,233.12,395.08,245.51z"/>
</g>
<g>
</g>
<g>
</g>
<g>
</g>
<g>
</g>
<g>
</g>
</svg>
