<?xml version="1.0" encoding="utf-8"?>
<!-- Generator: Adobe Illustrator 26.0.1, SVG Export Plug-In . SVG Version: 6.00 Build 0)  -->
<svg version="1.1" id="Calque_1" xmlns="http://www.w3.org/2000/svg" xmlns:xlink="http://www.w3.org/1999/xlink" x="0px" y="0px"
	 viewBox="0 0 1200 544.34" style="enable-background:new 0 0 1200 544.34;" xml:space="preserve">
<style type="text/css">
	.st0{fill:#2A2A72;}
	.st1{fill:#4D4DC4;}
	.st2{fill:#FFFFFF;}
</style>
<g>
	<path class="st0" d="M1755.71,2.18v-315.89h76.72V2.18H1755.71z"/>
	<path class="st0" d="M2022.01-83.11v29.78c0,23.77,3,42.27,9.03,55.51h-78.97c-4.51-8.12-6.77-24.52-6.77-49.19v-52.35
		c0-12.64-4.22-18.95-12.64-18.95h-3.61V2.18h-76.72v-315.89h101.54c26.77,0,44.82,5.27,54.15,15.79
		c9.32,10.53,13.99,30.84,13.99,60.92v12.64c0,21.66-2.19,37.76-6.54,48.29c-4.36,10.53-12.11,17.75-23.24,21.66
		c11.13,4.51,18.88,12.18,23.24,23.01C2019.82-120.56,2022.01-104.47,2022.01-83.11z M1945.29-203.15v-25.72
		c0-4.51-0.45-7.67-1.35-9.48s-2.86-2.71-5.87-2.71h-9.03v50.09h9.03c3,0,4.96-0.9,5.87-2.71S1945.29-198.63,1945.29-203.15z"/>
	<path class="st0" d="M2045.79,2.18v-315.89h76.72V2.18H2045.79z"/>
	<path class="st0" d="M2228.91-80.4v-5.42c0-10.53-2.56-18.88-7.67-25.05c-5.12-6.16-15.79-15.57-32.04-28.2
		c-11.44-9.03-20.24-16.99-26.4-23.92c-6.17-6.92-11.36-16.17-15.57-27.75c-4.22-11.58-6.32-25.19-6.32-40.84v-7.67
		c0-30.08,4.66-50.39,13.99-60.92c9.32-10.53,27.37-15.79,54.15-15.79h28.43c26.77,0,44.82,5.27,54.15,15.79
		c9.32,10.53,13.99,30.84,13.99,60.92v32.04h-72.2v-23.92c0-4.51-0.45-7.67-1.35-9.48c-0.9-1.81-2.86-2.71-5.87-2.71h-1.8
		c-4.82,0-7.22,3.46-7.22,10.38v0.9c0,7.52,1.73,14.21,5.19,20.08c3.46,5.87,7.07,10.53,10.83,13.99
		c3.76,3.46,11.66,9.86,23.69,19.18c17.15,13.54,29.56,26.7,37.23,39.49c7.67,12.79,11.51,30.46,11.51,53.02v13.99
		c0,30.09-4.67,50.39-13.99,60.92c-9.33,10.53-27.38,15.79-54.15,15.79h-28.43c-26.78,0-44.83-5.26-54.15-15.79
		c-9.33-10.53-13.99-30.83-13.99-60.92v-41.07h71.75v32.94c0,4.51,0.45,7.67,1.35,9.48c0.9,1.8,2.86,2.71,5.87,2.71h2.26
		C2226.66-68.22,2228.91-72.28,2228.91-80.4z"/>
</g>
<path class="st0" d="M1553.41-127.81c0-6.08,3.3-11.02,7.36-11.02c4.05,0,7.35,4.94,7.35,11.02c0,6.08-3.3,11.02-7.35,11.02
	C1556.71-116.79,1553.41-121.73,1553.41-127.81z"/>
<path class="st0" d="M1495.81-122.65c6.02-2.49,12.16-4.62,18.4-6.52c2.26,16.05,15.3,28.35,31.04,28.35
	c17.33,0,31.37-14.93,31.37-33.33c0-3.93-0.62-7.68-1.79-11.16c6.58-2.33,12.95-5.13,18.99-8.71c2.07,5.58,3.21,11.63,3.21,17.95
	c0,28.43-23.04,51.49-51.5,51.49C1521.74-84.58,1501.7-100.74,1495.81-122.65z"/>
<path class="st0" d="M1695.73-259.63v196.02c0,42.73-34.68,77.37-77.41,77.37h-196.03c-37.98,0-69.58-27.38-76.11-63.5l81.78-52.11
	c-0.77,11.99,0.6,23.8,6.3,34.47c6.49-11,12.36-21.38,21.72-30.38c8.42-8.09,18.19-14.6,28.61-19.82c0.28-0.13,0.56-0.29,0.84-0.41
	c6.32,28.37,31.63,49.53,61.9,49.53c35.05,0,63.49-28.41,63.49-63.49c0-10.44-2.53-20.3-7.01-28.98
	c11.99-9.6,21.57-22.09,27.52-36.28c5.19-12.39,7.36-25.54,6.84-38.59l56.61-36.07C1695.39-267.88,1695.73-263.81,1695.73-259.63z"
	/>
<path class="st1" d="M1694.78-271.87l-56.61,36.07c-0.67-16.95-5.9-33.73-14.97-48.44c-19.85,93.78-109.25,67.89-153.95,121.46
	c1.92-14.69,25.91-37.86,38.01-39.68c-34.62-2.52-62.41-21.68-93.91-21.2c2.78,0,8.72,6.15,10.77,7.94
	c2.97,2.61,5.74,5.48,8.11,8.65c4.12,5.46,6.99,11.71,8.37,18.4c2.78,13.53-0.24,27.51-3.43,40.67c-3.48,14.32-8.19,30.4-9.21,46.15
	l-81.78,52.11c-0.84-4.49-1.26-9.12-1.26-13.87v-196.02c0-42.74,34.64-77.38,77.37-77.38h196.03
	C1656.87-337.01,1688.89-308.78,1694.78-271.87z"/>
<g>
	<path class="st2" d="M522.52,438.78V122.89h76.72v315.89H522.52z"/>
	<path class="st2" d="M788.82,353.49v29.78c0,23.77,3,42.27,9.03,55.51h-78.97c-4.51-8.12-6.77-24.52-6.77-49.19v-52.35
		c0-12.63-4.22-18.95-12.64-18.95h-3.61v120.49h-76.72V122.89h101.54c26.77,0,44.82,5.27,54.15,15.79
		c9.32,10.53,13.99,30.84,13.99,60.92v12.63c0,21.66-2.19,37.76-6.54,48.29c-4.36,10.53-12.11,17.75-23.24,21.66
		c11.13,4.51,18.88,12.18,23.24,23.01C786.63,316.03,788.82,332.13,788.82,353.49z M712.1,233.45v-25.72c0-4.51-0.45-7.67-1.35-9.48
		c-0.9-1.8-2.86-2.71-5.87-2.71h-9.03v50.09h9.03c3,0,4.96-0.9,5.87-2.71C711.65,241.12,712.1,237.96,712.1,233.45z"/>
	<path class="st2" d="M812.6,438.78V122.89h76.72v315.89H812.6z"/>
	<path class="st2" d="M995.72,356.19v-5.42c0-10.53-2.56-18.88-7.67-25.04c-5.12-6.16-15.79-15.57-32.04-28.2
		c-11.44-9.03-20.24-16.99-26.4-23.92c-6.17-6.92-11.36-16.17-15.57-27.75c-4.22-11.58-6.32-25.19-6.32-40.84v-7.67
		c0-30.08,4.66-50.39,13.99-60.92c9.32-10.53,27.37-15.79,54.15-15.79h28.43c26.77,0,44.82,5.27,54.15,15.79
		c9.32,10.54,13.99,30.84,13.99,60.92v32.04h-72.2v-23.92c0-4.51-0.45-7.67-1.35-9.48c-0.9-1.81-2.86-2.71-5.87-2.71h-1.8
		c-4.82,0-7.22,3.46-7.22,10.38v0.9c0,7.52,1.73,14.21,5.19,20.08c3.46,5.87,7.07,10.53,10.83,13.99
		c3.76,3.46,11.66,9.86,23.69,19.18c17.15,13.54,29.56,26.7,37.23,39.49c7.67,12.79,11.51,30.46,11.51,53.02v13.99
		c0,30.09-4.67,50.39-13.99,60.92c-9.33,10.53-27.38,15.79-54.15,15.79h-28.43c-26.78,0-44.83-5.26-54.15-15.79
		c-9.33-10.53-13.99-30.83-13.99-60.92v-41.07h71.75v32.94c0,4.51,0.45,7.67,1.35,9.48c0.9,1.8,2.86,2.71,5.87,2.71h2.26
		C993.46,368.38,995.72,364.32,995.72,356.19z"/>
</g>
<path class="st2" d="M320.22,308.79c0-6.08,3.3-11.02,7.36-11.02c4.05,0,7.35,4.94,7.35,11.02c0,6.08-3.3,11.02-7.35,11.02
	C323.52,319.81,320.22,314.87,320.22,308.79z"/>
<path class="st2" d="M262.62,313.95c6.02-2.49,12.16-4.62,18.4-6.52c2.26,16.05,15.3,28.35,31.04,28.35
	c17.33,0,31.37-14.93,31.37-33.33c0-3.93-0.62-7.68-1.79-11.16c6.58-2.33,12.95-5.13,18.99-8.71c2.07,5.58,3.21,11.63,3.21,17.95
	c0,28.43-23.04,51.49-51.5,51.49C288.55,352.02,268.51,335.86,262.62,313.95z"/>
<path class="st2" d="M462.54,176.97v196.02c0,42.73-34.68,77.37-77.41,77.37H189.1c-37.98,0-69.58-27.38-76.11-63.5l81.78-52.11
	c-0.77,11.99,0.6,23.8,6.3,34.47c6.49-11,12.36-21.38,21.72-30.38c8.42-8.09,18.19-14.6,28.61-19.82c0.28-0.13,0.56-0.29,0.84-0.41
	c6.32,28.37,31.63,49.53,61.9,49.53c35.05,0,63.49-28.41,63.49-63.49c0-10.44-2.53-20.3-7.01-28.98
	c11.99-9.6,21.57-22.09,27.52-36.28c5.19-12.39,7.36-25.54,6.84-38.59l56.61-36.07C462.2,168.72,462.54,172.79,462.54,176.97z"/>
<path class="st2" d="M461.59,164.73l-56.61,36.07c-0.67-16.95-5.9-33.73-14.97-48.44c-19.85,93.78-109.25,67.89-153.95,121.46
	c1.92-14.69,25.91-37.86,38.01-39.68c-34.62-2.52-62.41-21.68-93.91-21.2c2.78,0,8.72,6.15,10.77,7.94
	c2.97,2.61,5.74,5.48,8.11,8.65c4.12,5.46,6.99,11.71,8.37,18.4c2.78,13.53-0.24,27.51-3.43,40.67c-3.48,14.32-8.19,30.4-9.21,46.15
	l-81.78,52.11c-0.84-4.49-1.26-9.12-1.26-13.87V176.97c0-42.74,34.64-77.38,77.37-77.38h196.03
	C423.68,99.59,455.7,127.82,461.59,164.73z"/>
<g>
</g>
<g>
</g>
<g>
</g>
<g>
</g>
<g>
</g>
</svg>
